HIERARCHY
ROOT root
{
	OFFSET 0.000000 0.000000 0.000000
	CHANNELS 6 Xposition Yposition Zposition Zrotation Yrotation Xrotation
	JOINT lhip
	{
		OFFSET 0.058581 -0.082280 -0.017664
		CHANNELS 3 Zrotation Yrotation Xrotation
		JOINT lknee
		{
			OFFSET 0.043451 -0.386469 0.008037
			CHANNELS 3 Zrotation Yrotation Xrotation
			JOINT lankle
			{
				OFFSET -0.014790 -0.426874 -0.037428
				CHANNELS 3 Zrotation Yrotation Xrotation
				JOINT ltoe
				{
					OFFSET 0.041054 -0.060286 0.122042
					CHANNELS 3 Zrotation Yrotation Xrotation
					End Site
					{
						OFFSET 0.000000 0.000000 0.000000
					}
				}
			}
		}
	}
	JOINT rhip
	{
		OFFSET -0.060310 -0.090513 -0.013543
		CHANNELS 3 Zrotation Yrotation Xrotation
		JOINT rknee
		{
			OFFSET -0.043257 -0.383688 -0.004843
			CHANNELS 3 Zrotation Yrotation Xrotation
			JOINT rankle
			{
				OFFSET 0.019056 -0.420046 -0.034562
				CHANNELS 3 Zrotation Yrotation Xrotation
				JOINT rtoe
				{
					OFFSET -0.034840 -0.062106 0.130323
					CHANNELS 3 Zrotation Yrotation Xrotation
					End Site
					{
						OFFSET 0.000000 0.000000 0.000000
					}
				}
			}
		}
	}
	JOINT lowerback
	{
		OFFSET 0.004439 0.124404 -0.038385
		CHANNELS 3 Zrotation Yrotation Xrotation
		JOINT upperback
		{
			OFFSET 0.004488 0.137956 0.026820
			CHANNELS 3 Zrotation Yrotation Xrotation
			JOINT chest
			{
				OFFSET -0.002265 0.056032 0.002855
				CHANNELS 3 Zrotation Yrotation Xrotation
				JOINT lowerneck
				{
					OFFSET -0.013390 0.211636 -0.033468
					CHANNELS 3 Zrotation Yrotation Xrotation
					JOINT upperneck
					{
						OFFSET 0.010113 0.088937 0.050410
						CHANNELS 3 Zrotation Yrotation Xrotation
						End Site
						{
							OFFSET 0.000000 0.000000 0.000000
						}
					}
				}
				JOINT lclavicle
				{
					OFFSET 0.071702 0.114000 -0.018898
					CHANNELS 3 Zrotation Yrotation Xrotation
					JOINT lshoulder
					{
						OFFSET 0.122921 0.045205 -0.019046
						CHANNELS 3 Zrotation Yrotation Xrotation
						JOINT lelbow
						{
							OFFSET 0.255332 -0.015649 -0.022946
							CHANNELS 3 Zrotation Yrotation Xrotation
							JOINT lwrist
							{
								OFFSET 0.265709 0.012698 -0.007375
								CHANNELS 3 Zrotation Yrotation Xrotation
								End Site
								{
									OFFSET 0.000000 0.000000 0.000000
								}
							}
						}
					}
				}
				JOINT rclavicle
				{
					OFFSET -0.082954 0.112472 -0.023707
					CHANNELS 3 Zrotation Yrotation Xrotation
					JOINT rshoulder
					{
						OFFSET -0.113228 0.046853 -0.008472
						CHANNELS 3 Zrotation Yrotation Xrotation
						JOINT relbow
						{
							OFFSET -0.260127 -0.014369 -0.031269
							CHANNELS 3 Zrotation Yrotation Xrotation
							JOINT rwrist
							{
								OFFSET -0.269108 0.006794 -0.006027
								CHANNELS 3 Zrotation Yrotation Xrotation
								End Site
								{
									OFFSET 0.000000 0.000000 0.000000
								}
							}
						}
					}
				}
			}
		}
	}
}
MOTION
Frames: 13
Frame Time: 0.033333
-0.732744 1.130466 0.942281 114.771982 3.354272 91.457335 5.446341 -11.637144 -27.398539 -5.238305 -10.274620 43.642632 5.988886 19.191041 -31.887922 0.000000 -0.000000 0.000000 -7.470862 1.168603 -23.450567 -4.258392 3.406923 30.574811 -0.525724 -15.621866 -30.396070 0.000000 -0.000000 0.000000 -1.028910 1.504125 11.723023 4.783148 -1.781023 -7.747706 2.326304 -0.624754 -1.902932 6.101402 -30.669608 -4.931275 15.778288 -19.467975 -16.796860 -10.451640 17.355002 -10.262082 -20.113286 -3.474010 8.727954 168.433531 -54.530937 -167.325685 24.779146 -29.058115 -39.217032 5.714670 -9.309765 -12.810980 18.385133 3.244350 5.825829 160.904801 49.481012 162.252101 -18.696556 24.381258 -33.723438 
-0.730339 1.130160 0.942374 114.728676 3.323059 91.500785 5.456843 -11.634086 -27.388088 -5.235168 -10.272410 43.648568 5.988490 19.190384 -31.882532 0.000000 -0.000000 0.000000 -7.470370 1.167428 -23.445287 -4.257002 3.406275 30.577191 -0.529832 -15.616761 -30.388499 0.000000 -0.000000 0.000000 -0.996295 1.453819 11.769770 4.814299 -1.825032 -7.719822 2.346793 -0.671615 -1.873418 6.088345 -30.667238 -4.923235 15.767226 -19.476617 -16.795592 -10.426195 17.316709 -10.249075 -20.102732 -3.517709 8.744565 168.464530 -54.507510 -167.345184 24.781364 -29.061281 -39.212475 5.704355 -9.306379 -12.795424 18.394348 3.246967 5.835882 160.912350 49.488509 162.262211 -18.698051 24.376111 -33.723673 
-0.728356 1.129817 0.942515 114.486199 3.290641 91.545665 5.524634 -11.576425 -27.295118 -5.201367 -10.197378 43.669279 5.973926 19.171590 -31.850652 0.000000 -0.000000 0.000000 -7.444488 1.175722 -23.442921 -4.241333 3.429057 30.597670 -0.551717 -15.550618 -30.298389 0.000000 -0.000000 0.000000 -1.025236 1.332549 11.849687 4.792686 -1.929375 -7.639766 2.307276 -0.778960 -1.837077 5.922010 -30.569470 -4.840436 15.592727 -19.529831 -16.717746 -10.328381 17.197706 -10.178649 -20.069046 -3.694260 8.820411 168.649261 -54.381959 -167.462199 24.804350 -29.083540 -39.246485 5.666813 -9.235695 -12.769203 18.388892 3.377702 5.860307 160.987784 49.575910 162.360602 -18.729768 24.322357 -33.718996 
-0.726050 1.129124 0.942427 112.624518 3.117747 91.107032 5.707624 -10.439744 -26.281280 -4.967989 -9.160174 43.393452 5.459118 18.867661 -31.548703 0.000000 -0.000000 0.000000 -7.369133 0.930928 -23.990745 -3.712565 4.121800 31.723747 -0.465616 -14.386858 -28.817803 0.000000 -0.000000 0.000000 -0.926142 1.525471 12.129972 4.046088 -1.252704 -7.316899 1.918696 0.329869 -1.961362 5.242721 -28.338949 -5.576142 12.723712 -21.147403 -14.792763 -9.634614 16.251576 -8.693400 -19.884739 -4.458600 7.892902 168.480279 -54.050766 -167.147441 23.999644 -29.645968 -39.032927 5.187079 -7.636532 -6.770086 18.921919 1.510738 2.256803 164.105254 49.120338 166.296202 -18.225338 24.742024 -32.893926 
-0.723130 1.128815 0.942470 112.385641 2.984152 91.130378 5.644870 -9.967108 -26.031479 -4.861194 -9.061037 43.181911 5.354111 18.538075 -31.502841 0.000000 -0.000000 0.000000 -7.521022 0.900730 -24.178235 -3.766730 3.900503 32.148512 -0.383062 -14.088366 -28.795963 0.000000 -0.000000 0.000000 -0.558223 1.129008 12.064067 3.662902 -1.323391 -7.170547 1.720192 0.393352 -1.687525 3.678816 -24.680688 -6.939386 10.444875 -18.164070 -13.356554 -10.063795 15.927075 -9.069229 -19.904082 -3.387283 8.141782 168.210137 -54.197431 -166.714408 24.210606 -29.373470 -38.771851 5.758586 -7.653971 -7.086011 17.918655 2.007340 2.241298 164.879483 48.769382 166.295623 -18.477332 24.607494 -32.697557 
-0.721633 1.129105 0.940989 111.975242 2.720118 91.771348 5.943358 -10.524324 -26.810151 -4.662957 -7.825463 43.388485 6.012801 18.567861 -31.113743 0.000000 -0.000000 0.000000 -8.056538 1.508172 -25.207781 -4.092276 2.935380 32.662680 -0.755474 -13.027544 -28.432569 0.000000 -0.000000 0.000000 -0.093172 0.980690 11.275185 3.497799 -1.454035 -7.661799 1.116789 0.475505 -1.217600 -0.365213 -17.891713 -6.693849 8.301790 -11.724638 -12.582666 -9.439785 17.177969 -10.811274 -21.576666 -4.330941 12.601223 166.401960 -55.437004 -162.865351 27.972326 -27.912455 -41.017311 5.130480 -9.393400 -10.819564 20.018766 4.354127 9.217351 167.197230 51.329923 169.559682 -20.251579 23.614353 -32.867231 
-0.719787 1.128154 0.939708 111.355548 2.627453 92.323796 5.948911 -10.466262 -27.150175 -4.909221 -7.910866 42.997377 5.848840 19.129272 -30.555010 0.000000 -0.000000 0.000000 -7.854860 2.071164 -25.837814 -4.398088 3.221467 32.194180 -0.764849 -13.218852 -28.403448 0.000000 -0.000000 0.000000 0.656797 0.945119 11.898790 2.909860 -1.313224 -9.373976 0.692616 0.452168 -0.639829 -4.351771 -8.868395 -7.917142 5.744520 -4.538691 -12.037920 -8.120103 17.355387 -10.567181 -22.753483 -3.605483 12.751363 167.366217 -54.805871 -161.971361 28.969780 -27.421097 -41.969981 5.176394 -9.303548 -9.080543 20.742334 4.724995 8.893022 169.114576 51.839489 172.543099 -19.745507 23.907300 -32.795574 
-0.717422 1.126952 0.938514 110.353872 2.240341 92.912101 5.873471 -10.451123 -27.431637 -4.732138 -7.305384 42.673006 5.956239 19.540323 -30.431808 0.000000 -0.000000 0.000000 -7.819402 2.135077 -27.137141 -4.635687 3.552641 33.306089 -0.691730 -12.493039 -27.874148 0.000000 -0.000000 0.000000 0.393359 1.183249 11.429489 2.488088 -1.001890 -9.140209 0.409840 1.210859 -1.660229 -6.550461 -2.563471 -7.905068 4.207392 0.596434 -10.286258 -7.323113 17.076351 -9.845497 -22.627798 -4.215811 12.811747 167.836144 -54.438106 -161.807663 29.967049 -26.652712 -42.926962 5.836558 -9.847075 -7.622229 20.908377 5.129124 8.536975 169.905528 52.873334 173.336277 -19.970908 23.693123 -32.511648 
-0.714614 1.125716 0.938200 110.053266 2.185309 92.954131 5.890735 -10.574492 -27.172905 -4.542474 -7.174168 42.502065 5.984895 19.705556 -30.321900 0.000000 -0.000000 0.000000 -7.675012 2.434714 -27.097958 -4.669369 3.826328 32.924231 -0.527772 -12.549732 -28.572612 0.000000 -0.000000 0.000000 0.159153 1.356259 11.556373 2.482534 -0.851317 -9.186255 0.597549 1.350538 -2.031676 -7.677458 -0.019285 -8.199235 3.426089 3.176527 -8.790803 -7.342310 16.978840 -9.573843 -23.221551 -4.571009 12.775867 167.968172 -54.321216 -161.519180 30.207774 -26.199014 -43.610803 5.912318 -9.947050 -6.894369 20.987300 5.234175 8.627830 170.357894 53.549621 173.495993 -20.059201 23.665246 -32.910687 
-0.711584 1.124567 0.939021 110.140848 2.326667 92.901465 6.031359 -10.449958 -26.862213 -4.534618 -7.472304 42.480165 5.858208 19.638024 -30.392597 0.000000 -0.000000 0.000000 -7.351879 2.671325 -26.728013 -4.769054 3.728011 32.847597 -0.522774 -12.750326 -28.917637 0.000000 -0.000000 0.000000 0.246585 1.268099 11.808103 2.650418 -0.941743 -9.547384 0.705971 0.763016 -1.822594 -7.845968 0.439266 -8.105823 3.111544 3.642168 -8.501388 -7.123555 17.294550 -9.172444 -23.979390 -3.739111 12.012504 168.079941 -54.229837 -161.484001 29.418942 -26.864752 -43.228432 5.898225 -9.468219 -6.691215 21.163055 5.892468 8.502598 170.086914 53.436163 173.392001 -19.422690 24.060099 -33.240267 
-0.708939 1.123383 0.939034 110.372442 2.456503 92.892938 6.173586 -10.104709 -26.719710 -4.735719 -7.867917 42.523932 5.891872 19.634551 -30.583932 0.000000 -0.000000 0.000000 -7.319643 2.557057 -26.684178 -4.454829 3.398677 33.203184 -0.417889 -12.667328 -29.260843 0.000000 -0.000000 0.000000 0.322213 1.016414 11.529745 2.776981 -1.113096 -9.119091 0.589657 0.811753 -2.007417 -7.219999 0.254636 -7.806948 3.176677 3.292464 -7.493893 -6.831771 17.335911 -8.803224 -24.071866 -3.974837 11.786034 167.892771 -54.747616 -161.300293 30.061360 -26.277339 -43.714880 5.924354 -9.263086 -6.022630 21.181196 6.169893 8.165785 170.145039 53.098440 173.675418 -20.229209 23.738206 -33.145756 
-0.706163 1.122048 0.939193 110.703767 2.549089 92.853010 6.251663 -9.884702 -26.454452 -4.756180 -8.215747 42.365719 5.854717 19.541147 -30.616986 0.000000 -0.000000 0.000000 -7.193680 2.465898 -26.496563 -4.291969 3.084566 33.501893 -0.388562 -12.812476 -29.598873 0.000000 -0.000000 0.000000 0.331895 0.732975 11.764496 2.974459 -1.311358 -9.519064 0.748105 0.473117 -1.646514 -7.184370 -0.117423 -7.763504 3.246600 3.499570 -7.777315 -6.784719 17.352526 -8.404910 -23.791727 -3.517902 11.581833 167.923727 -54.843669 -161.440791 30.837593 -26.062212 -43.873169 5.810472 -9.112143 -6.101389 21.139294 6.487853 8.209932 169.765257 52.967568 173.216125 -20.619685 23.579002 -33.614649 
-0.703192 1.120938 0.939553 110.630104 2.665184 93.093662 6.590846 -9.461569 -26.515283 -4.817499 -8.246701 42.296015 5.673308 19.345761 -30.768002 0.000000 -0.000000 0.000000 -6.904880 2.510451 -26.555211 -4.397255 2.980806 33.402943 -0.419134 -12.738172 -29.628576 0.000000 -0.000000 0.000000 0.315445 0.704705 11.864936 3.102372 -1.194468 -9.949324 0.906592 0.353012 -1.583161 -7.162066 -0.217459 -7.854372 3.340137 3.409865 -7.721918 -7.176509 17.551914 -8.510607 -22.905179 -3.701792 11.588763 168.085470 -54.782003 -161.770897 30.196944 -26.394915 -43.784901 6.002393 -9.489994 -6.152458 21.113319 6.091409 8.233869 169.680696 52.796697 173.229750 -20.098615 23.711213 -33.429704 
